<svg xmlns="http://www.w3.org/2000/svg" xmlns:xlink="http://www.w3.org/1999/xlink" version="1.1" enable-background="new 293 166 213.3 60" xml:space="preserve" width="212" height="59"><rect id="backgroundrect" width="100%" height="100%" x="0" y="0" fill="none" stroke="none" class="" style=""/>

<g class="currentLayer" style=""><title>Layer 1</title>
	<g id="svg_2" class="" transform="">
		<path fill="#FCF8F8" d="M 41.6878 41.9512 c 0 0.7 -0.5 1.2 -1.2 1.2 h -9.6 c -0.7 0 -1.2 -0.5 -1.2 -1.2 v -9.6 c 0 -0.7 0.5 -1.2 1.2 -1.2 h 9.6 c 0.7 0 1.2 0.5 1.2 1.2 V 41.9512 Z" id="svg_3" transform=""/>
		<path fill="#FCF8F8" d="M 27.3878 13.3512 c 0 0.7 -0.5 1.2 -1.2 1.2 h -9.6 c -0.7 0 -1.2 -0.5 -1.2 -1.2 v -9.7 c 0 -0.7 0.5 -1.2 1.2 -1.2 h 9.6 c 0.7 0 1.2 0.5 1.2 1.2 V 13.3512 Z" id="svg_4" transform=""/>
		<path fill="#FCF8F8" d="M 41.6878 13.3512 c 0 0.7 -0.5 1.2 -1.2 1.2 h -9.6 c -0.7 0 -1.2 -0.5 -1.2 -1.2 v -9.7 c 0 -0.7 0.5 -1.2 1.2 -1.2 h 9.6 c 0.7 0 1.2 0.5 1.2 1.2 V 13.3512 Z" id="svg_5" transform=""/>
		<path fill="#FCF8F8" d="M 12.9878 27.6512 c 0 0.7 -0.5 1.2 -1.2 1.2 h -9.6 c -0.7 0 -1.2 -0.5 -1.2 -1.2 v -9.7 c 0 -0.7 0.5 -1.2 1.2 -1.2 h 9.6 c 0.7 0 1.2 0.5 1.2 1.2 V 27.6512 Z" id="svg_6" transform=""/>
		<path fill="#FCF8F8" d="M 27.3878 27.6512 c 0 0.7 -0.5 1.2 -1.2 1.2 h -9.6 c -0.7 0 -1.2 -0.5 -1.2 -1.2 v -9.7 c 0 -0.7 0.5 -1.2 1.2 -1.2 h 9.6 c 0.7 0 1.2 0.5 1.2 1.2 V 27.6512 Z" id="svg_7" transform=""/>
		<path fill="#FCF8F8" d="M 12.9878 41.9512 c 0 0.7 -0.5 1.2 -1.2 1.2 h -9.6 c -0.7 0 -1.2 -0.5 -1.2 -1.2 v -9.6 c 0 -0.7 0.5 -1.2 1.2 -1.2 h 9.6 c 0.7 0 1.2 0.5 1.2 1.2 V 41.9512 Z" id="svg_8" transform=""/>
		<path fill="#FCF8F8" d="M 27.3878 41.9512 c 0 0.7 -0.5 1.2 -1.2 1.2 h -9.6 c -0.7 0 -1.2 -0.5 -1.2 -1.2 v -9.6 c 0 -0.7 0.5 -1.2 1.2 -1.2 h 9.6 c 0.7 0 1.2 0.5 1.2 1.2 V 41.9512 Z" id="svg_9" transform=""/>
		<path fill="#FCF8F8" d="M 12.9878 56.1512 c 0 0.7 -0.5 1.2 -1.2 1.2 h -9.6 c -0.7 0 -1.2 -0.5 -1.2 -1.2 v -9.6 c 0 -0.7 0.5 -1.2 1.2 -1.2 h 9.6 c 0.7 0 1.2 0.5 1.2 1.2 V 56.1512 Z" id="svg_10" transform=""/>
		<path fill="#FCF8F8" d="M 27.3878 56.1512 c 0 0.7 -0.5 1.2 -1.2 1.2 h -9.6 c -0.7 0 -1.2 -0.5 -1.2 -1.2 v -9.6 c 0 -0.7 0.5 -1.2 1.2 -1.2 h 9.6 c 0.7 0 1.2 0.5 1.2 1.2 V 56.1512 Z" id="svg_11" transform=""/>
		<path fill="#FCF8F8" d="M 13.6878 8.55123 c 0 3.6 -3 6.6 -6.6 6.6 c -3.6 0 -6.6 -3 -6.6 -6.6 c 0 -3.6 3 -6.6 6.6 -6.6 C 10.6878 1.95123 13.6878 4.95123 13.6878 8.55123" id="svg_12" transform=""/>
	</g>
	<g enable-background="new    " id="svg_13" class="" transform="">
		<path fill="#FCF8F8" d="M 49.9683 53.4976 v 3.8 H 48.8683 v -9.2 h 2.5 c 1.1 0 2 0.2 2.5 0.7 c 0.5 0.4 0.8 1.1 0.8 2 c 0 1.2 -0.6 2 -1.9 2.5 l 2.5 4.2 h -1.3 l -2.2 -3.8 H 49.9683 Z M 49.9683 52.5976 h 1.5 c 0.8 0 1.3 -0.2 1.7 -0.5 c 0.4 -0.3 0.5 -0.8 0.5 -1.4 c 0 -0.6 -0.2 -1.1 -0.5 -1.3 c -0.4 -0.3 -0.9 -0.4 -1.7 -0.4 h -1.4 V 52.5976 Z" id="svg_14" transform=""/>
		<path fill="#FCF8F8" d="M 56.6683 48.4976 c 0 -0.2 0.1 -0.4 0.2 -0.5 c 0.1 -0.1 0.3 -0.2 0.4 -0.2 c 0.2 0 0.3 0.1 0.4 0.2 c 0.1 0.1 0.2 0.3 0.2 0.5 c 0 0.2 -0.1 0.4 -0.2 0.5 c -0.1 0.1 -0.3 0.2 -0.4 0.2 c -0.2 0 -0.3 -0.1 -0.4 -0.2 C 56.6683 48.8976 56.6683 48.7976 56.6683 48.4976 Z M 57.7683 57.2976 h -1.1 v -6.9 h 1.1 V 57.2976 Z" id="svg_15" transform=""/>
		<path fill="#FCF8F8" d="M 66.0683 53.8976 c 0 1.1 -0.3 2 -0.9 2.6 c -0.6 0.6 -1.4 1 -2.4 1 c -0.6 0 -1.2 -0.1 -1.7 -0.4 c -0.5 -0.3 -0.9 -0.7 -1.1 -1.3 c -0.3 -0.5 -0.4 -1.2 -0.4 -1.9 c 0 -1.1 0.3 -2 0.8 -2.6 c 0.6 -0.6 1.4 -0.9 2.4 -0.9 c 1 0 1.7 0.3 2.3 1 C 65.7683 51.8976 66.0683 52.7976 66.0683 53.8976 Z M 60.7683 53.8976 c 0 0.9 0.2 1.6 0.5 2 c 0.4 0.5 0.9 0.7 1.6 0.7 s 1.2 -0.2 1.6 -0.7 c 0.4 -0.5 0.5 -1.1 0.5 -2 c 0 -0.9 -0.2 -1.6 -0.5 -2 c -0.4 -0.5 -0.9 -0.7 -1.6 -0.7 c -0.7 0 -1.2 0.2 -1.6 0.7 C 60.8683 52.2976 60.7683 52.9976 60.7683 53.8976 Z" id="svg_16" transform=""/>
		<path fill="#FCF8F8" d="M 75.4683 52.4976 h 3.1 v 4.5 c -0.5 0.2 -1 0.3 -1.5 0.4 c -0.5 0.1 -1.1 0.1 -1.8 0.1 c -1.4 0 -2.5 -0.4 -3.3 -1.2 c -0.8 -0.8 -1.2 -2 -1.2 -3.5 c 0 -1 0.2 -1.8 0.6 -2.5 c 0.4 -0.7 0.9 -1.3 1.7 -1.7 c 0.7 -0.4 1.6 -0.6 2.6 -0.6 c 1 0 1.9 0.2 2.8 0.5 l -0.4 0.9 c -0.8 -0.4 -1.6 -0.5 -2.4 -0.5 c -1.1 0 -2 0.3 -2.6 1 c -0.6 0.7 -1 1.6 -1 2.8 c 0 1.2 0.3 2.2 0.9 2.8 c 0.6 0.6 1.5 1 2.7 1 c 0.6 0 1.3 -0.1 1.9 -0.2 v -2.8 h -2.1 V 52.4976 Z" id="svg_17" transform=""/>
		<path fill="#FCF8F8" d="M 83.8683 50.2976 c 0.3 0 0.6 0 0.8 0.1 l -0.1 1 c -0.3 -0.1 -0.5 -0.1 -0.8 -0.1 c -0.6 0 -1 0.2 -1.4 0.7 c -0.4 0.5 -0.6 1 -0.6 1.7 v 3.7 h -1.1 v -6.9 h 0.9 l 0.1 1.3 h 0.1 c 0.3 -0.5 0.6 -0.8 0.9 -1 C 83.0683 50.3976 83.4683 50.2976 83.8683 50.2976 Z" id="svg_18" transform=""/>
		<path fill="#FCF8F8" d="M 90.2683 57.2976 l -0.2 -1 h -0.1 c -0.3 0.4 -0.7 0.7 -1 0.9 c -0.3 0.2 -0.8 0.2 -1.3 0.2 c -0.7 0 -1.2 -0.2 -1.6 -0.5 c -0.4 -0.4 -0.6 -0.9 -0.6 -1.5 c 0 -1.4 1.1 -2.1 3.4 -2.2 l 1.2 0 v -0.4 c 0 -0.5 -0.1 -0.9 -0.4 -1.2 c -0.2 -0.3 -0.6 -0.4 -1.1 -0.4 c -0.6 0 -1.2 0.2 -2 0.5 l -0.3 -0.8 c 0.3 -0.2 0.7 -0.3 1.1 -0.4 c 0.4 -0.1 0.8 -0.2 1.2 -0.2 c 0.8 0 1.4 0.2 1.8 0.6 c 0.4 0.4 0.6 1 0.6 1.8 v 4.7 H 90.2683 Z M 87.8683 56.5976 c 0.7 0 1.2 -0.2 1.5 -0.5 c 0.4 -0.4 0.6 -0.9 0.6 -1.5 v -0.6 l -1.1 0 c -0.8 0 -1.4 0.2 -1.8 0.4 c -0.4 0.2 -0.6 0.6 -0.6 1.1 c 0 0.4 0.1 0.7 0.3 0.9 C 87.1683 56.4976 87.4683 56.5976 87.8683 56.5976 Z" id="svg_19" transform=""/>
		<path fill="#FCF8F8" d="M 97.9683 57.2976 v -4.5 c 0 -0.6 -0.1 -1 -0.4 -1.3 c -0.3 -0.3 -0.7 -0.4 -1.2 -0.4 c -0.7 0 -1.3 0.2 -1.6 0.6 c -0.3 0.4 -0.5 1 -0.5 1.9 v 3.6 h -1.1 v -6.9 h 0.9 l 0.2 0.9 h 0.1 c 0.2 -0.3 0.5 -0.6 0.9 -0.8 s 0.8 -0.3 1.3 -0.3 c 0.8 0 1.5 0.2 1.9 0.6 c 0.4 0.4 0.6 1 0.6 1.9 v 4.5 H 97.9683 Z" id="svg_20" transform=""/>
		<path fill="#FCF8F8" d="M 105.868 56.3976 L 105.868 56.3976 c -0.5 0.7 -1.3 1.1 -2.2 1.1 c -0.9 0 -1.6 -0.3 -2.1 -0.9 c -0.5 -0.6 -0.8 -1.5 -0.8 -2.6 c 0 -1.1 0.3 -2 0.8 -2.7 c 0.5 -0.6 1.2 -0.9 2.1 -0.9 c 0.9 0 1.7 0.3 2.2 1 h 0.1 l 0 -0.5 l 0 -0.5 v -2.8 h 1.1 v 9.8 h -0.9 L 105.868 56.3976 Z M 103.768 56.5976 c 0.7 0 1.2 -0.2 1.6 -0.6 c 0.3 -0.4 0.5 -1 0.5 -1.9 v -0.2 c 0 -1 -0.2 -1.7 -0.5 -2.1 c -0.3 -0.4 -0.9 -0.6 -1.6 -0.6 c -0.6 0 -1.1 0.2 -1.4 0.7 c -0.3 0.5 -0.5 1.2 -0.5 2 c 0 0.9 0.2 1.6 0.5 2 C 102.668 56.3976 103.168 56.5976 103.768 56.5976 Z" id="svg_21" transform=""/>
		<path fill="#FCF8F8" d="M 112.068 57.4976 c -1 0 -1.8 -0.3 -2.4 -0.9 c -0.6 -0.6 -0.9 -1.5 -0.9 -2.6 c 0 -1.1 0.3 -2 0.8 -2.7 c 0.6 -0.7 1.3 -1 2.2 -1 c 0.9 0 1.6 0.3 2.1 0.9 c 0.5 0.6 0.8 1.3 0.8 2.3 v 0.7 H 109.868 c 0 0.8 0.2 1.4 0.6 1.9 c 0.4 0.4 0.9 0.6 1.7 0.6 c 0.7 0 1.5 -0.2 2.2 -0.5 v 0.9 c -0.4 0.2 -0.7 0.3 -1.1 0.3 C 112.968 57.3976 112.568 57.4976 112.068 57.4976 Z M 111.768 51.1976 c -0.6 0 -1 0.2 -1.3 0.5 c -0.3 0.4 -0.5 0.9 -0.6 1.5 h 3.6 c 0 -0.7 -0.1 -1.2 -0.4 -1.5 C 112.768 51.2976 112.368 51.1976 111.768 51.1976 Z" id="svg_22" transform=""/>
		<path fill="#FCF8F8" d="M 124.468 56.3976 L 124.468 56.3976 c -0.5 0.7 -1.3 1.1 -2.2 1.1 c -0.9 0 -1.6 -0.3 -2.1 -0.9 s -0.8 -1.5 -0.8 -2.6 c 0 -1.1 0.3 -2 0.8 -2.7 c 0.5 -0.6 1.2 -0.9 2.1 -0.9 c 0.9 0 1.7 0.3 2.2 1 h 0.1 l 0 -0.5 l 0 -0.5 v -2.8 h 1.1 v 9.8 h -0.9 L 124.468 56.3976 Z M 122.368 56.5976 c 0.7 0 1.2 -0.2 1.6 -0.6 c 0.3 -0.4 0.5 -1 0.5 -1.9 v -0.2 c 0 -1 -0.2 -1.7 -0.5 -2.1 c -0.3 -0.4 -0.9 -0.6 -1.6 -0.6 c -0.6 0 -1.1 0.2 -1.4 0.7 c -0.3 0.5 -0.5 1.2 -0.5 2 c 0 0.9 0.2 1.6 0.5 2 C 121.268 56.3976 121.768 56.5976 122.368 56.5976 Z" id="svg_23" transform=""/>
		<path fill="#FCF8F8" d="M 133.768 53.8976 c 0 1.1 -0.3 2 -0.9 2.6 c -0.6 0.6 -1.4 1 -2.4 1 c -0.6 0 -1.2 -0.1 -1.7 -0.4 c -0.5 -0.3 -0.9 -0.7 -1.1 -1.3 c -0.3 -0.5 -0.4 -1.2 -0.4 -1.9 c 0 -1.1 0.3 -2 0.8 -2.6 c 0.6 -0.6 1.4 -0.9 2.4 -0.9 c 1 0 1.7 0.3 2.3 1 C 133.468 51.8976 133.768 52.7976 133.768 53.8976 Z M 128.468 53.8976 c 0 0.9 0.2 1.6 0.5 2 c 0.4 0.5 0.9 0.7 1.6 0.7 c 0.7 0 1.2 -0.2 1.6 -0.7 c 0.4 -0.5 0.5 -1.1 0.5 -2 c 0 -0.9 -0.2 -1.6 -0.5 -2 c -0.4 -0.5 -0.9 -0.7 -1.6 -0.7 c -0.7 0 -1.2 0.2 -1.6 0.7 C 128.568 52.2976 128.468 52.9976 128.468 53.8976 Z" id="svg_24" transform=""/>
		<path fill="#FCF8F8" d="M 146.368 57.2976 h -1.2 l -5.1 -7.8 h -0.1 c 0.1 0.9 0.1 1.7 0.1 2.5 v 5.3 h -1 v -9.2 h 1.2 l 5.1 7.7 h 0.1 c 0 -0.1 0 -0.5 -0.1 -1.1 c 0 -0.6 0 -1.1 0 -1.3 v -5.3 h 1 V 57.2976 Z" id="svg_25" transform=""/>
		<path fill="#FCF8F8" d="M 154.768 53.8976 c 0 1.1 -0.3 2 -0.9 2.6 c -0.6 0.6 -1.4 1 -2.4 1 c -0.6 0 -1.2 -0.1 -1.7 -0.4 c -0.5 -0.3 -0.9 -0.7 -1.1 -1.3 c -0.3 -0.5 -0.4 -1.2 -0.4 -1.9 c 0 -1.1 0.3 -2 0.8 -2.6 c 0.6 -0.6 1.4 -0.9 2.4 -0.9 c 1 0 1.7 0.3 2.3 1 C 154.468 51.8976 154.768 52.7976 154.768 53.8976 Z M 149.468 53.8976 c 0 0.9 0.2 1.6 0.5 2 c 0.4 0.5 0.9 0.7 1.6 0.7 c 0.7 0 1.2 -0.2 1.6 -0.7 c 0.4 -0.5 0.5 -1.1 0.5 -2 c 0 -0.9 -0.2 -1.6 -0.5 -2 c -0.4 -0.5 -0.9 -0.7 -1.6 -0.7 c -0.7 0 -1.2 0.2 -1.6 0.7 C 149.568 52.2976 149.468 52.9976 149.468 53.8976 Z" id="svg_26" transform=""/>
		<path fill="#FCF8F8" d="M 159.768 50.2976 c 0.3 0 0.6 0 0.8 0.1 l -0.1 1 c -0.3 -0.1 -0.5 -0.1 -0.8 -0.1 c -0.6 0 -1 0.2 -1.4 0.7 c -0.4 0.5 -0.6 1 -0.6 1.7 v 3.7 h -1.1 v -6.9 h 0.9 l 0.1 1.3 h 0.1 c 0.3 -0.5 0.6 -0.8 0.9 -1 C 158.868 50.3976 159.268 50.2976 159.768 50.2976 Z" id="svg_27" transform=""/>
		<path fill="#FCF8F8" d="M 164.068 56.5976 c 0.2 0 0.4 0 0.5 0 c 0.2 0 0.3 -0.1 0.4 -0.1 v 0.8 c -0.1 0.1 -0.3 0.1 -0.5 0.1 c -0.2 0 -0.4 0.1 -0.6 0.1 c -1.3 0 -2 -0.7 -2 -2.1 v -4.1 h -1 v -0.5 l 1 -0.4 l 0.4 -1.5 h 0.6 v 1.6 h 2 v 0.8 h -2 v 4.1 c 0 0.4 0.1 0.7 0.3 1 C 163.468 56.4976 163.768 56.5976 164.068 56.5976 Z" id="svg_28" transform=""/>
		<path fill="#FCF8F8" d="M 169.368 57.4976 c -1 0 -1.8 -0.3 -2.4 -0.9 c -0.6 -0.6 -0.9 -1.5 -0.9 -2.6 c 0 -1.1 0.3 -2 0.8 -2.7 c 0.6 -0.7 1.3 -1 2.2 -1 c 0.9 0 1.6 0.3 2.1 0.9 c 0.5 0.6 0.8 1.3 0.8 2.3 v 0.7 h -4.8 c 0 0.8 0.2 1.4 0.6 1.9 c 0.4 0.4 0.9 0.6 1.7 0.6 c 0.7 0 1.5 -0.2 2.2 -0.5 v 0.9 c -0.4 0.2 -0.7 0.3 -1.1 0.3 C 170.268 57.3976 169.868 57.4976 169.368 57.4976 Z M 169.068 51.1976 c -0.6 0 -1 0.2 -1.3 0.5 c -0.3 0.4 -0.5 0.9 -0.6 1.5 h 3.6 c 0 -0.7 -0.1 -1.2 -0.4 -1.5 C 170.068 51.2976 169.668 51.1976 169.068 51.1976 Z" id="svg_29" transform=""/>
	</g>
	
	<g enable-background="new    " id="svg_40" class="">
		<path fill="#FCF8F8" d="M 48.7683 43.4293 v -11.8 h 2.5 v 11.8 H 48.7683 Z" id="svg_41" transform=""/>
		<path fill="#FCF8F8" d="M 64.8683 43.4293 h -3.2 l -5.2 -9 h -0.1 c 0.1 1.6 0.2 2.7 0.2 3.4 v 5.6 h -2.2 v -11.8 h 3.2 l 5.2 8.9 h 0.1 c -0.1 -1.5 -0.1 -2.6 -0.1 -3.3 v -5.6 h 2.3 V 43.4293 Z" id="svg_42" transform=""/>
		<path fill="#FCF8F8" d="M 74.8683 40.1293 c 0 1.1 -0.4 1.9 -1.2 2.5 c -0.8 0.6 -1.8 0.9 -3.2 0.9 c -1.3 0 -2.4 -0.2 -3.4 -0.7 v -2.3 c 0.8 0.4 1.5 0.6 2 0.8 c 0.6 0.1 1.1 0.2 1.5 0.2 c 0.6 0 1 -0.1 1.3 -0.3 c 0.3 -0.2 0.4 -0.5 0.4 -0.9 c 0 -0.2 -0.1 -0.4 -0.2 -0.6 c -0.1 -0.2 -0.3 -0.4 -0.6 -0.5 c -0.3 -0.2 -0.8 -0.4 -1.5 -0.8 c -0.7 -0.3 -1.3 -0.7 -1.6 -1 c -0.4 -0.3 -0.7 -0.7 -0.9 -1.1 c -0.2 -0.4 -0.3 -0.9 -0.3 -1.5 c 0 -1 0.4 -1.9 1.1 -2.5 c 0.7 -0.6 1.7 -0.9 3 -0.9 c 0.6 0 1.2 0.1 1.8 0.2 c 0.6 0.1 1.1 0.4 1.8 0.6 l -0.8 2 c -0.6 -0.3 -1.2 -0.4 -1.6 -0.5 c -0.4 -0.1 -0.8 -0.2 -1.2 -0.2 c -0.5 0 -0.8 0.1 -1.1 0.3 c -0.3 0.2 -0.4 0.5 -0.4 0.9 c 0 0.2 0.1 0.4 0.2 0.6 c 0.1 0.2 0.3 0.3 0.5 0.5 c 0.2 0.2 0.8 0.4 1.6 0.8 c 1.1 0.5 1.9 1.1 2.3 1.6 C 74.5683 38.6293 74.8683 39.3293 74.8683 40.1293 Z" id="svg_43" transform=""/>
		<path fill="#FCF8F8" d="M 81.5683 43.4293 h -2.5 v -9.8 h -3.2 v -2.1 h 9 v 2.1 h -3.2 V 43.4293 Z" id="svg_44" transform=""/>
		<path fill="#FCF8F8" d="M 86.5683 43.4293 v -11.8 h 2.5 v 11.8 H 86.5683 Z" id="svg_45" transform=""/>
		<path fill="#FCF8F8" d="M 96.6683 43.4293 h -2.5 v -9.8 h -3.2 v -2.1 h 9 v 2.1 h -3.2 V 43.4293 Z" id="svg_46" transform=""/>
		<path fill="#FCF8F8" d="M 111.368 31.5293 v 7.7 c 0 0.9 -0.2 1.6 -0.6 2.3 c -0.4 0.7 -1 1.2 -1.7 1.5 c -0.7 0.4 -1.6 0.5 -2.6 0.5 c -1.5 0 -2.7 -0.4 -3.6 -1.2 c -0.8 -0.8 -1.3 -1.8 -1.3 -3.2 v -7.6 h 2.5 v 7.3 c 0 0.9 0.2 1.6 0.6 2 c 0.4 0.4 1 0.6 1.8 0.6 c 0.8 0 1.4 -0.2 1.8 -0.6 c 0.4 -0.4 0.6 -1.1 0.6 -2 v -7.2 H 111.368 Z" id="svg_47" transform=""/>
		<path fill="#FCF8F8" d="M 118.868 43.4293 h -2.5 v -9.8 h -3.2 v -2.1 h 9 v 2.1 H 118.868 V 43.4293 Z" id="svg_48" transform=""/>
		<path fill="#FCF8F8" d="M 134.668 37.4293 c 0 2 -0.5 3.5 -1.5 4.5 c -1 1.1 -2.4 1.6 -4.2 1.6 c -1.8 0 -3.2 -0.5 -4.2 -1.6 c -1 -1.1 -1.5 -2.6 -1.5 -4.5 c 0 -2 0.5 -3.5 1.5 -4.5 c 1 -1 2.4 -1.6 4.2 -1.6 c 1.8 0 3.2 0.5 4.2 1.6 C 134.268 33.9293 134.668 35.5293 134.668 37.4293 Z M 126.068 37.4293 c 0 1.3 0.3 2.3 0.8 3 c 0.5 0.7 1.3 1 2.3 1 c 2 0 3 -1.3 3 -4 c 0 -2.7 -1 -4 -3 -4 c -1 0 -1.8 0.3 -2.3 1 C 126.268 35.1293 126.068 36.1293 126.068 37.4293 Z" id="svg_49" transform=""/>
		<path fill="#FCF8F8" d="M 143.968 43.4293 h -2.5 v -11.8 h 6.8 v 2.1 h -4.3 v 3.1 h 4 v 2.1 h -4 V 43.4293 Z" id="svg_50" transform=""/>
		<path fill="#FCF8F8" d="M 157.468 43.4293 h -6.8 v -11.8 h 6.8 v 2.1 h -4.3 v 2.6 h 4 v 2.1 h -4 v 3.1 h 4.3 V 43.4293 Z" id="svg_51" transform=""/>
		<path fill="#FCF8F8" d="M 169.768 37.3293 c 0 2 -0.6 3.4 -1.7 4.5 c -1.1 1 -2.7 1.6 -4.8 1.6 h -3.4 v -11.8 h 3.7 c 1.9 0 3.4 0.5 4.5 1.5 C 169.268 34.1293 169.768 35.5293 169.768 37.3293 Z M 167.168 37.4293 c 0 -2.5 -1.1 -3.8 -3.4 -3.8 h -1.3 v 7.7 h 1.1 C 165.968 41.3293 167.168 40.0293 167.168 37.4293 Z" id="svg_52" transform=""/>
		<path fill="#FCF8F8" d="M 179.068 43.4293 h -6.8 v -11.8 h 6.8 v 2.1 h -4.3 v 2.6 h 4 v 2.1 h -4 v 3.1 h 4.3 V 43.4293 Z" id="svg_53" transform=""/>
		<path fill="#FCF8F8" d="M 184.068 38.8293 v 4.5 h -2.5 v -11.8 h 3.5 c 1.6 0 2.8 0.3 3.6 0.9 c 0.8 0.6 1.2 1.5 1.2 2.7 c 0 0.7 -0.2 1.3 -0.6 1.9 c -0.4 0.5 -0.9 1 -1.6 1.3 c 1.8 2.7 3 4.4 3.5 5.2 h -2.8 l -2.8 -4.5 H 184.068 Z M 184.068 36.8293 h 0.8 c 0.8 0 1.4 -0.1 1.8 -0.4 c 0.4 -0.3 0.6 -0.7 0.6 -1.2 c 0 -0.6 -0.2 -1 -0.6 -1.2 c -0.4 -0.2 -1 -0.4 -1.8 -0.4 h -0.8 V 36.8293 Z" id="svg_54" transform=""/>
		<path fill="#FCF8F8" d="M 199.768 43.4293 l -0.9 -2.8 h -4.3 l -0.9 2.8 h -2.7 l 4.2 -11.9 h 3.1 l 4.2 11.9 H 199.768 Z M 198.368 38.4293 c -0.8 -2.6 -1.2 -4 -1.3 -4.3 c -0.1 -0.3 -0.2 -0.6 -0.2 -0.8 c -0.2 0.7 -0.7 2.4 -1.5 5.1 H 198.368 Z" id="svg_55" transform=""/>
		<path fill="#FCF8F8" d="M 203.968 43.4293 v -11.8 h 2.5 v 9.8 h 4.8 v 2.1 H 203.968 Z" id="svg_56" transform=""/>
	</g>
</g></svg>